<?xml version="1.0" standalone="no"?>
<!DOCTYPE svg PUBLIC "-//W3C//DTD SVG 20010904//EN"
 "http://www.w3.org/TR/2001/REC-SVG-20010904/DTD/svg10.dtd">
<svg version="1.0" xmlns="http://www.w3.org/2000/svg"
 width="375.000000pt" height="218.000000pt" viewBox="0 0 375.000000 218.000000"
 preserveAspectRatio="xMidYMid meet">
<metadata>
Created by potrace 1.16, written by Peter Selinger 2001-2019
</metadata>
<g transform="translate(0.000000,218.000000) scale(0.100000,-0.100000)"
fill="#000000" stroke="none">
<path d="M2755 2118 c-58 -20 -124 -79 -145 -128 -6 -14 -28 -35 -50 -48 -47
-27 -84 -73 -104 -130 -17 -48 -61 -91 -92 -92 -44 0 -123 -33 -174 -72 -50
-38 -55 -39 -89 -30 -20 6 -48 13 -63 16 -24 5 -26 10 -26 51 0 105 -92 152
-238 122 -167 -35 -279 -116 -407 -291 -13 -18 -15 -18 -54 8 -30 20 -55 27
-104 30 -35 2 -85 7 -111 11 -53 8 -103 -7 -118 -36 -18 -33 -61 -33 -126 2
-77 41 -141 38 -183 -8 -15 -17 -43 -34 -62 -38 -19 -4 -57 -19 -86 -32 -43
-22 -55 -33 -72 -74 -12 -26 -21 -53 -21 -58 0 -6 22 -27 50 -47 27 -20 50
-39 50 -42 6 -97 15 -146 36 -199 l26 -64 -27 -21 c-67 -53 -97 -96 -115 -170
-17 -66 1 -144 44 -194 28 -33 34 -49 39 -107 8 -85 33 -143 80 -184 103 -90
306 -61 425 60 l43 44 46 -24 c79 -39 165 -24 236 43 25 23 31 24 59 15 73
-26 164 -5 242 54 28 22 43 25 107 25 57 0 84 5 114 21 22 12 55 21 74 20 42
-2 96 15 139 44 26 18 42 21 77 17 35 -3 56 1 98 22 66 32 68 32 97 1 55 -58
136 -42 193 40 30 43 44 55 65 55 47 0 125 46 186 108 52 54 62 59 83 51 13
-5 42 -9 63 -9 31 0 44 6 69 36 l32 35 -3 202 -3 202 41 42 c48 48 52 64 50
213 -1 89 -4 111 -23 142 -17 29 -22 52 -20 100 2 83 -15 135 -60 187 -67 79
-192 113 -288 79z m154 -19 c57 -17 114 -61 141 -109 21 -37 25 -59 25 -125 1
-66 5 -87 23 -118 18 -29 23 -49 21 -94 -1 -32 -1 -86 0 -120 2 -77 -19 -119
-76 -152 -14 -7 -21 -315 -8 -362 10 -40 -17 -93 -55 -109 -30 -12 -37 -12
-71 7 l-38 21 -59 -63 c-81 -86 -127 -115 -179 -115 -40 0 -45 -3 -84 -55 -67
-88 -107 -98 -166 -40 -39 38 -63 44 -84 19 -27 -32 -70 -47 -124 -40 -44 5
-56 2 -85 -19 -44 -32 -95 -49 -131 -41 -20 4 -40 -1 -62 -14 -54 -34 -104
-43 -154 -29 -41 11 -46 10 -71 -13 -76 -70 -185 -98 -251 -64 -32 17 -32 17
-71 -18 -92 -83 -177 -92 -236 -26 l-26 28 -66 -67 c-80 -81 -147 -111 -245
-111 -143 1 -216 83 -217 246 0 44 -4 54 -26 69 -53 34 -76 126 -53 209 12 42
86 129 131 152 l27 14 -29 46 c-33 52 -50 120 -50 198 0 51 -1 53 -40 75 -110
62 -78 124 90 177 50 16 80 31 80 39 0 8 12 22 26 32 23 14 32 15 71 4 25 -6
57 -20 71 -31 17 -14 40 -20 76 -20 46 0 53 3 67 29 21 36 57 43 126 25 30 -8
65 -11 79 -8 28 7 67 -1 86 -19 7 -6 28 -22 45 -34 l32 -23 20 45 c27 61 151
183 231 227 135 75 282 90 338 35 35 -36 36 -93 3 -138 l-24 -32 24 7 c63 18
88 18 132 -2 l46 -20 45 39 c55 49 127 81 170 78 27 -3 42 4 75 34 22 20 43
49 47 64 16 66 59 120 113 144 17 8 35 25 40 39 34 99 170 162 280 129z"/>
<path d="M2790 2058 c-54 -15 -97 -53 -122 -108 -13 -28 -29 -50 -37 -50 -33
0 -79 -42 -100 -89 -11 -28 -21 -58 -21 -68 -1 -10 -15 -27 -33 -38 -39 -25
-63 -65 -53 -91 7 -17 9 -17 18 6 21 56 78 90 91 56 12 -30 117 -73 117 -48 0
5 -16 13 -35 16 -42 8 -75 53 -75 101 0 61 64 137 103 122 8 -3 18 -19 22 -35
8 -37 51 -79 90 -87 29 -6 29 -6 -6 14 -20 11 -44 35 -53 55 -74 156 120 292
255 179 63 -53 75 -128 34 -209 -14 -27 -25 -50 -25 -51 0 -1 13 0 28 3 23 5
32 1 45 -20 32 -48 14 -141 -32 -166 -25 -13 -87 -13 -112 0 -11 6 -19 7 -19
1 0 -5 17 -17 37 -26 30 -14 44 -16 73 -8 19 6 42 12 50 14 26 7 25 -47 -1
-68 -65 -52 -66 -55 -74 -157 -4 -53 -4 -148 0 -211 6 -99 5 -115 -8 -115 -24
0 -27 22 -27 190 0 132 -3 160 -16 171 -20 16 -44 3 -62 -35 -12 -24 -12 -30
2 -45 9 -10 16 -26 16 -37 1 -19 1 -19 15 0 18 23 17 28 15 -104 -1 -58 3
-117 9 -132 18 -49 74 -59 90 -17 3 10 2 66 -3 123 -11 137 0 293 23 311 9 8
27 23 40 33 20 15 25 28 23 58 -3 75 -2 89 4 137 7 54 -8 100 -39 122 -18 13
-19 18 -9 53 15 50 15 75 0 125 -28 92 -143 153 -238 125z"/>
<path d="M1805 1660 c3 -5 -13 -36 -37 -67 -67 -90 -93 -131 -139 -225 -35
-70 -48 -88 -65 -88 -80 0 -52 183 44 284 54 56 6 28 -72 -42 -73 -66 -95
-109 -96 -180 0 -46 4 -58 29 -83 16 -16 39 -29 50 -29 12 0 21 -6 21 -14 0
-19 -82 -126 -130 -170 -42 -37 -67 -45 -88 -24 -20 20 -14 43 23 81 19 20 35
43 35 51 0 25 -45 30 -89 9 -32 -15 -42 -26 -51 -60 -28 -97 52 -166 162 -142
57 13 156 81 200 139 21 26 51 75 67 109 15 33 51 86 80 117 56 61 61 79 12
43 -17 -12 -33 -21 -35 -18 -7 7 41 147 66 194 11 22 31 51 42 65 52 60 52 60
7 60 -26 0 -40 -4 -36 -10z"/>
<path d="M2295 1551 c-38 -17 -179 -156 -213 -210 -9 -14 -19 -28 -22 -31 -4
-3 -20 -26 -38 -51 -38 -57 -97 -109 -122 -109 -29 0 -38 77 -15 138 28 76 66
140 92 158 32 20 39 12 18 -20 -13 -20 -15 -29 -6 -40 25 -30 91 21 91 70 0
22 -4 24 -52 24 -34 0 -64 -7 -83 -19 -37 -22 -178 -161 -171 -168 2 -3 -4
-18 -14 -35 -36 -59 1 -158 59 -158 42 0 124 54 188 124 64 70 79 79 70 44 -3
-11 0 -33 8 -48 27 -53 72 -53 151 -2 78 51 207 202 173 202 -8 0 -34 -25 -58
-56 -62 -80 -139 -120 -154 -81 -7 18 0 26 48 62 68 50 138 137 150 186 5 22
2 27 -17 33 -33 8 -39 8 -83 -13z"/>
<path d="M2440 1515 c0 -9 13 -24 30 -33 34 -19 50 -57 50 -114 0 -48 15 -78
38 -78 30 0 42 22 42 75 0 44 13 88 22 75 2 -3 10 -18 18 -34 9 -17 28 -34 47
-40 57 -19 60 -32 15 -55 -38 -20 -218 -71 -248 -71 -8 0 -14 9 -14 19 0 17 5
19 35 14 21 -3 35 -1 35 5 0 5 -16 13 -35 16 -26 5 -35 12 -35 27 0 41 -25 12
-28 -32 -1 -24 -7 -54 -13 -65 -12 -24 -9 -55 6 -54 6 0 10 8 10 18 0 11 9 18
25 20 49 5 166 36 229 59 35 13 71 21 81 18 27 -9 32 9 15 53 -15 37 -47 62
-80 62 -8 0 -21 16 -29 35 -29 68 -83 35 -88 -54 -5 -84 -25 -75 -33 14 -7 72
-9 77 -45 105 -43 34 -50 36 -50 15z"/>
<path d="M1045 1470 l7 -30 -64 -1 c-35 0 -72 -4 -83 -8 -14 -6 -31 1 -63 26
-55 42 -112 47 -112 9 0 -21 -7 -25 -57 -35 -67 -14 -168 -60 -168 -78 0 -7
22 -28 50 -47 l49 -36 2 -73 c3 -148 71 -257 162 -257 43 0 39 10 -22 52 -61
42 -89 93 -94 173 l-4 61 188 11 c159 10 275 26 517 70 25 5 27 3 27 -28 0
-24 6 -38 21 -48 20 -12 21 -11 14 11 -4 12 -12 44 -18 71 -9 40 -15 47 -35
47 -19 0 -22 4 -17 20 4 13 -1 27 -18 42 -78 73 -96 80 -135 52 -21 -14 -24
-14 -48 5 -17 13 -41 21 -66 21 -39 0 -39 -1 -33 -30z m-234 -33 c19 -12 36
-31 38 -42 3 -17 1 -18 -13 -6 -14 12 -16 12 -10 -3 7 -18 -6 -20 -91 -18 -40
2 -45 0 -28 -8 l23 -9 -23 -35 c-12 -19 -26 -35 -31 -36 -11 0 -114 59 -121
70 -8 13 119 50 172 50 45 0 45 0 40 30 -8 36 -1 37 44 7z"/>
<path d="M2709 1181 c-25 -16 -53 -40 -62 -55 -21 -31 -42 -35 -34 -5 4 15 -1
23 -19 31 -20 9 -30 7 -66 -17 -24 -15 -62 -48 -85 -74 -41 -45 -42 -45 -43
-19 0 28 -31 58 -61 58 -11 0 -43 -39 -84 -102 -155 -236 -214 -264 -119 -56
l47 102 -29 23 c-16 12 -33 23 -38 23 -14 0 -51 -44 -51 -60 0 -10 -16 -17
-47 -22 -64 -9 -147 -58 -177 -105 -41 -64 -233 -303 -252 -313 -10 -6 -25
-10 -34 -10 -23 0 -8 71 19 89 42 28 135 130 155 169 l21 41 -26 20 c-34 27
-38 27 -110 -9 -66 -32 -90 -56 -199 -199 -99 -130 -110 -122 -45 33 22 53 40
98 40 100 0 16 -39 12 -82 -10 -47 -24 -83 -25 -46 -1 15 10 15 13 -5 29 -15
14 -29 17 -51 12 -41 -9 -41 -8 -40 -67 1 -47 -4 -60 -52 -134 -30 -44 -54
-84 -54 -87 0 -3 6 -6 14 -6 8 0 45 45 81 100 37 55 74 100 81 100 26 0 14
-53 -23 -100 -22 -28 -73 -139 -73 -158 0 -10 9 -27 20 -37 32 -29 68 -11 158
82 80 83 82 84 82 54 0 -69 78 -93 154 -47 22 13 68 52 103 87 63 63 63 63 63
33 0 -79 65 -84 147 -10 47 43 49 44 59 23 5 -14 20 -23 38 -25 25 -3 40 7
101 71 40 41 96 109 125 151 29 42 55 75 57 72 2 -2 -16 -48 -41 -101 -51
-108 -56 -135 -27 -135 32 0 70 39 147 154 95 143 111 162 120 153 5 -4 -15
-55 -44 -113 -56 -112 -63 -144 -33 -144 32 0 69 39 146 153 119 179 155 205
94 65 -18 -40 -32 -89 -33 -108 -1 -32 1 -35 31 -38 25 -3 40 5 72 33 49 45
151 168 151 184 0 21 -15 11 -58 -39 -75 -87 -81 -63 -21 72 39 87 41 92 23
105 -25 18 -33 17 -85 -16z"/>
<path d="M1008 1030 c-39 -12 -139 -74 -167 -104 -14 -14 -32 -26 -40 -27 -10
0 -11 -2 -4 -6 8 -3 1 -16 -20 -38 -26 -26 -66 -94 -114 -193 0 -2 -15 4 -32
12 -52 27 -53 85 -3 139 30 32 20 35 -26 7 -74 -45 -67 -162 11 -191 l33 -12
0 -96 c-1 -85 2 -100 22 -128 47 -66 154 -67 248 -2 55 38 119 121 149 195 36
88 11 116 -31 36 -48 -90 -97 -132 -155 -132 -49 0 -73 28 -73 87 l-1 46 51
17 c142 49 260 150 308 265 23 55 20 80 -15 109 -32 27 -84 33 -141 16z m97
-30 c18 -57 -117 -242 -219 -301 -60 -34 -66 -35 -66 -11 0 22 58 142 69 142
3 0 17 -7 30 -16 17 -12 26 -13 34 -5 9 9 4 17 -17 35 l-29 23 31 45 c65 95
151 140 167 88z"/>
</g>
</svg>
